<?xml version="1.0" encoding="UTF-8"?>
<!DOCTYPE svg PUBLIC "-//W3C//DTD SVG 1.1//EN" "http://www.w3.org/Graphics/SVG/1.1/DTD/svg11.dtd">
<!-- Creator: CorelDRAW 2020 (64-Bit) -->
<svg xmlns="http://www.w3.org/2000/svg" xml:space="preserve" width="535.253mm" height="64.4467mm" version="1.1" style="shape-rendering:geometricPrecision; text-rendering:geometricPrecision; image-rendering:optimizeQuality; fill-rule:evenodd; clip-rule:evenodd"
viewBox="0 0 6876.19 827.92"
 xmlns:xlink="http://www.w3.org/1999/xlink"
 xmlns:xodm="http://www.corel.com/coreldraw/odm/2003">
 <defs>
  <style type="text/css">
   <![CDATA[
    .fil0 {fill:#7C3AED;fill-rule:nonzero}
   ]]>
  </style>
 </defs>
 <g id="Layer_x0020_1">
  <metadata id="CorelCorpID_0Corel-Layer"/>
  <g id="_2751800641664">
   <path class="fil0" d="M681.46 823.45c3,-5.04 6.38,-9.89 10.01,-14.49 12.66,-14.7 19.65,-33.49 19.65,-52.9 0,-1.3 -0.04,-2.62 -0.1,-3.91 0,-45.65 0,-91.37 -0.8,-137.01 -0.09,-0.87 -0.14,-1.74 -0.14,-2.61 0,-8.82 5.04,-16.87 12.97,-20.73 8.12,-4.35 15.5,-10.07 23.26,-15.14 7.75,-5.07 8.77,-4.93 13.48,2.9 11.88,19.85 23.62,39.78 35.43,59.63 10.22,17.17 20.29,34.42 30.5,51.52 2.26,3.64 3.45,7.84 3.45,12.12 0,0.79 -0.04,1.59 -0.12,2.38 -4.42,37.1 -8.62,74.12 -12.97,111.14 -0.87,7.24 -2.39,8.26 -9.56,8.33l-116.44 0c-2.87,-0.25 -5.78,-0.68 -8.62,-1.24l-0 0.01z"/>
   <path class="fil0" d="M424.68 822.22l14.49 -7.24c7.24,-3.77 7.9,-5.29 5.65,-13.04 -8.04,-28.98 -15.94,-57.38 -24.49,-85.86 -0.99,-3.04 -1.5,-6.22 -1.5,-9.42 0,-5.15 1.32,-10.22 3.82,-14.71 11.88,-22.9 22.97,-46.15 34.49,-69.27 2.8,-6.45 8.56,-11.15 15.43,-12.61 13.55,-3.19 26.88,-7.25 40.43,-10.14 7.25,-1.88 8.84,-1.09 10.58,7.24 3.62,17.53 7.24,35.14 10.58,52.67l30.65 154.84c0.42,1.66 0.74,3.37 0.94,5.07 0.05,0.26 0.08,0.53 0.08,0.8 0,2.4 -1.95,4.35 -4.35,4.35 -0.07,0 -0.15,-0 -0.22,-0 -1,0.05 -2.03,0.08 -3.04,0.08 -1.01,0 -2.04,-0.03 -3.04,-0.08l-121.58 0c-0.46,0 -0.93,0.02 -1.39,0.02 -2.34,0 -4.69,-0.15 -7.01,-0.45l-0.51 -2.25z"/>
   <path class="fil0" d="M1310.25 699.26l98.72 -95.39c53.24,62.11 118.68,95.39 198.54,95.39 89.84,0 136.42,-43.26 136.42,-108.7 0,-52.13 -24.4,-84.29 -105.37,-98.71l-73.21 -11.09c-156.39,-24.4 -231.81,-98.71 -231.81,-225.15 0,-138.64 107.59,-228.48 280.61,-228.48 116.46,0 202.98,39.93 265.08,114.24l-99.82 94.28c-37.71,-47.69 -90.95,-79.86 -173.03,-79.86 -83.19,0 -126.44,33.27 -126.44,90.95 0,58.78 33.27,83.19 107.59,96.5l72.1 13.31c156.39,27.73 229.59,97.6 229.59,225.16 0,146.41 -105.37,246.23 -290.6,246.23 -131.99,0 -222.94,-52.13 -288.38,-128.66z"/>
   <polygon class="fil0" points="2289.66,170.2 2289.66,814.61 2143.26,814.61 2143.26,170.2 1923.65,170.2 1923.65,40.43 2509.28,40.43 2509.28,170.2 "/>
   <path class="fil0" d="M3008.42 814.61l-62.11 -197.43 -275.07 0 -61 197.43 -148.63 -0 259.54 -774.18 181.9 0 257.32 774.18 -151.95 0zm-197.43 -641.09l-5.54 0 -98.72 318.33 204.08 0 -99.82 -318.33z"/>
   <polygon class="fil0" points="3496.48,464.13 3393.33,586.13 3393.33,814.61 3246.92,814.61 3246.92,40.43 3393.33,40.43 3393.33,421.98 3398.88,421.98 3508.68,276.68 3700.57,40.43 3869.16,40.43 3599.63,363.19 3891.34,814.61 3717.2,814.61 "/>
   <polygon class="fil0" points="3971.23,814.61 3971.23,40.43 4481.44,40.43 4481.44,170.2 4117.64,170.2 4117.64,357.64 4439.28,357.64 4439.28,487.41 4117.64,487.41 4117.64,684.84 4481.44,684.84 4481.44,814.61 "/>
   <path class="fil0" d="M4843.04 40.43l281.73 0c201.86,0 333.85,129.77 333.85,387.09 0,257.32 -131.98,387.09 -333.85,387.09l-281.73 -0 0 -774.18zm281.73 644.41c108.69,0 178.57,-64.33 178.57,-196.32l0 -122c0,-131.99 -69.88,-196.32 -178.57,-196.32l-135.31 -0 0 514.65 135.31 0z"/>
   <path class="fil0" d="M6025.43 814.61l-62.11 -197.43 -275.07 0 -61 197.43 -148.63 -0 259.54 -774.18 181.9 0 257.32 774.18 -151.95 0zm-197.43 -641.09l-5.55 0 -98.71 318.33 204.08 0 -99.82 -318.33z"/>
   <path class="fil0" d="M6201.83 427.52c0,-261.76 134.2,-400.4 337.18,-400.4 204.09,0 337.18,138.64 337.18,400.4 0,261.76 -133.09,400.4 -337.18,400.4 -202.98,0 -337.18,-138.64 -337.18,-400.4zm519.08 59.89l0 -119.79c0,-131.98 -70.98,-210.73 -181.9,-210.73 -110.91,0 -181.9,78.75 -181.9,210.73l-0 119.79c0,131.99 70.98,210.74 181.9,210.74 110.91,0 181.9,-78.75 181.9,-210.74z"/>
   <g id="noun_Elephant_1201412_Image" data-name="noun Elephant 1201412 Image">
    <path class="fil0" d="M-0 481.12l0 -2.18c1.05,-3.03 1.89,-6.17 2.48,-9.33 9.27,-81 18.54,-161.99 27.82,-242.97 0.46,-4.98 2.22,-9.76 5.1,-13.85 31.78,-40.46 63.82,-80.71 96.1,-120.75 2.97,-3.43 7.07,-5.71 11.55,-6.42 35.57,-4.25 71.19,-8.13 106.87,-11.64 13.29,-1.14 26.23,-5.1 37.87,-11.59 36.28,-20.38 73.11,-39.83 109.57,-59.93 2.47,-1.61 5.35,-2.47 8.3,-2.47 2.69,0 5.34,0.72 7.67,2.07 53.23,26.28 106.59,52.21 159.93,78.31 3.44,1.7 6.74,3.65 13.05,7.03l-43.51 42.24c3.09,0.83 5.05,1.54 7.07,1.87 49.68,7.92 99.48,15.23 149.01,23.93 53.73,9.37 108.76,15.09 156.9,43.92 35.37,21.19 69.61,44.29 104.74,65.82 13.63,7.77 22.05,22.26 22.05,37.95 0,1.7 -0.1,3.41 -0.3,5.09 -1.81,31.04 -4.11,62.1 -7.53,93.04 -1.76,28.04 -11.61,55 -28.27,77.61 -0.98,1.85 -1.49,3.91 -1.49,6 0,1.04 0.13,2.08 0.38,3.09 17,95.96 34.05,191.89 51.16,287.79 2.48,14.1 3.65,28.43 5.41,42.66l-130.45 0c6.53,-7.5 12.47,-15.6 19.58,-22.34 3.42,-2.35 5.46,-6.23 5.46,-10.38 0,-2.57 -0.79,-5.09 -2.26,-7.2 -36.91,-75.86 -73.47,-151.86 -109.7,-228.01 -1.9,-6.01 -7.48,-10.09 -13.78,-10.09 -1.55,0 -3.08,0.25 -4.55,0.73 -41.16,6.05 -82.44,11.22 -123.68,16.71 -60.6,8.06 -121.22,16.13 -181.83,24.19 -6.52,0.21 -12.36,4.08 -15.09,10 -38.17,75.43 -76.59,150.84 -115.27,226.25l-132.56 0c1.06,-3.74 2.45,-7.4 4.16,-10.88 11.38,-18.95 23.12,-37.68 34.52,-56.56 2.67,-4.29 4.8,-8.92 6.31,-13.75 28.52,-97.32 56.86,-194.69 85.02,-292.11 0.19,-1 0.29,-2.02 0.29,-3.03 0,-3.65 -1.26,-7.19 -3.55,-10.02 -15.84,-16.42 -32.19,-32.37 -48.88,-47.86 -2.82,-2.27 -6.34,-3.51 -9.97,-3.51 -0.76,0 -1.53,0.05 -2.28,0.16 -39.7,8.2 -79.22,17.16 -118.92,25.36 -5.4,0.5 -9.53,5.03 -9.53,10.45 0,0.09 0,0.18 0.01,0.27 -4.18,33.46 -8.7,66.84 -12.77,100.3 -0.14,0.8 -0.21,1.62 -0.21,2.43 0,2.68 0.77,5.31 2.21,7.57 12.66,14.34 25.86,28.28 39.65,43.03l47.03 -45.14c5.2,35.2 10.03,67.96 15.09,102.24 -25.56,4.87 -50.29,9.63 -75.09,14.2 -0.09,0 -0.19,0.01 -0.29,0.01 -2.07,0 -4.13,-0.39 -6.06,-1.13 -14.77,-3.59 -29.71,-6.66 -44.2,-11.12 -5.64,-1.81 -10.55,-5.41 -13.96,-10.25 -16.25,-25.3 -31.58,-51.16 -47.49,-76.7 -12.77,-20.46 -25.83,-40.8 -38.88,-61.14z"/>
    <path class="fil0" d="M680.23 818.29c6.64,-11.07 12.68,-22.56 20.12,-33.04 5.35,-7.44 8.23,-16.39 8.23,-25.55 0,-0.55 -0.02,-1.12 -0.03,-1.66 -0.39,-50.68 0,-101.39 -0.35,-152.09 -0.05,-0.52 -0.08,-1.05 -0.08,-1.57 0,-5.99 3.31,-11.49 8.6,-14.29 11.99,-7.31 23.56,-15.23 36.11,-23.52 2.42,3.65 4.35,6.53 6.24,9.57 21.45,36.09 43.03,72.11 64.06,108.44 2.26,4.13 3.45,8.78 3.45,13.5 0,0.88 -0.04,1.77 -0.12,2.65 -4.22,39.16 -9.05,78.31 -13.68,117.57l-132.56 0z"/>
    <path class="fil0" d="M423.78 818.29c5.81,-4.13 11.95,-7.94 18.24,-11.26 4.42,-1.02 7.54,-4.96 7.54,-9.5 0,-1.6 -0.4,-3.19 -1.15,-4.6 -8.7,-28.75 -16.85,-57.65 -24.43,-86.68 -0.52,-2.07 -0.8,-4.21 -0.8,-6.35 0,-3.38 0.67,-6.74 1.97,-9.86 11.74,-24.85 24.02,-49.45 36.84,-73.78 2.7,-4.78 7.04,-8.43 12.21,-10.27 16.18,-4.96 32.78,-8.59 50.88,-13.16 1.98,8.7 4.02,16.94 5.68,25.21 12.69,63.52 25.32,127.04 37.89,190.58 0.44,3.19 0.7,6.46 0.74,9.68l-145.62 0z"/>
   </g>
  </g>
 </g>
</svg>
