<?xml version="1.0" encoding="UTF-8"?>
<!DOCTYPE svg PUBLIC "-//W3C//DTD SVG 1.1//EN" "http://www.w3.org/Graphics/SVG/1.1/DTD/svg11.dtd">
<!-- Creator: CorelDRAW 2020 (64-Bit) -->
<svg xmlns="http://www.w3.org/2000/svg" xml:space="preserve" width="297mm" height="288.612mm" version="1.1" style="shape-rendering:geometricPrecision; text-rendering:geometricPrecision; image-rendering:optimizeQuality; fill-rule:evenodd; clip-rule:evenodd"
viewBox="0 0 2415.19 2346.99"
 xmlns:xlink="http://www.w3.org/1999/xlink"
 xmlns:xodm="http://www.corel.com/coreldraw/odm/2003">
 <defs>
  <style type="text/css">
   <![CDATA[
    .fil0 {fill:#7C3AED;fill-rule:nonzero}
   ]]>
  </style>
 </defs>
 <g id="Layer_x0020_1">
  <metadata id="CorelCorpID_0Corel-Layer"/>
  <g id="_2751800258400">
   <g id="noun_Elephant_1201412_Image" data-name="noun Elephant 1201412 Image">
    <path class="fil0" d="M78.21 1087.9l0 -4.92c2.37,-6.85 4.26,-13.96 5.6,-21.1 20.96,-183.17 41.93,-366.3 62.92,-549.4 1.03,-11.27 5.01,-22.08 11.51,-31.33 71.87,-91.49 144.31,-182.5 217.3,-273.03 6.72,-7.76 15.98,-12.9 26.12,-14.51 80.43,-9.61 160.98,-18.38 241.65,-26.32 30.04,-2.58 59.3,-11.54 85.63,-26.2 82.04,-46.09 165.31,-90.06 247.75,-135.51 5.59,-3.64 12.11,-5.58 18.77,-5.58 6.09,0 12.07,1.62 17.33,4.68 120.36,59.42 241.01,118.05 361.61,177.07 7.77,3.84 15.25,8.26 29.51,15.89l-98.37 95.52c6.98,1.87 11.41,3.49 15.99,4.23 112.34,17.9 224.93,34.43 336.92,54.1 121.49,21.2 245.93,34.13 354.78,99.31 79.98,47.91 157.39,100.14 236.83,148.84 37.53,22.97 51.69,56.56 49.19,97.34 -4.08,70.19 -9.3,140.43 -17.02,210.37 -7.03,63.2 -23.02,124 -63.94,175.5 -3.69,4.67 -3.69,13.92 -2.51,20.56 38.43,216.97 77,433.88 115.69,650.73 5.61,31.87 8.26,64.29 12.25,96.45l-294.97 0c14.76,-16.97 28.18,-35.27 44.27,-50.51 13.53,-12.64 15.64,-22.43 7.23,-39.74 -83.45,-171.53 -166.13,-343.38 -248.05,-515.57 -9.84,-20.26 -20.36,-24.25 -41.46,-21.15 -93.06,13.67 -186.41,25.38 -279.67,37.77 -137.03,18.23 -274.08,36.46 -411.14,54.69 -15.44,2.02 -26.27,7.03 -34.13,22.63 -86.31,170.54 -173.18,341.07 -260.64,511.58l-299.74 0c2.38,-8.44 5.53,-16.73 9.39,-24.6 25.72,-42.84 52.28,-85.19 78.06,-127.88 6.03,-9.7 10.85,-20.17 14.27,-31.08 64.49,-220.05 128.58,-440.22 192.26,-660.51 0.44,-2.26 0.66,-4.55 0.66,-6.85 0,-8.25 -2.84,-16.26 -8.04,-22.66 -35.81,-37.14 -72.8,-73.19 -110.52,-108.21 -6.38,-5.14 -14.34,-7.94 -22.54,-7.94 -1.72,0 -3.45,0.12 -5.15,0.37 -89.76,18.54 -179.14,38.81 -268.9,57.35 -15.4,3.15 -19.67,10.62 -21.54,24.25 -9.44,75.65 -19.67,151.15 -28.87,226.8 -0.89,7.38 0,17.61 4.53,22.63 28.63,32.41 58.48,63.94 89.67,97.29l106.34 -102.06c11.76,79.58 22.68,153.66 34.13,231.17 -57.79,11.02 -113.72,21.79 -169.79,32.12 -0.21,0 -0.44,0.01 -0.65,0.01 -4.69,0 -9.34,-0.87 -13.7,-2.56 -33.4,-8.12 -67.19,-15.05 -99.95,-25.13 -12.75,-4.09 -23.84,-12.24 -31.58,-23.17 -36.74,-57.2 -71.42,-115.69 -107.37,-173.43 -28.87,-46.28 -58.39,-92.27 -87.9,-138.26z"/>
    <path class="fil0" d="M1616.3 1850.29c15,-25.04 28.68,-51.01 45.5,-74.71 12.09,-16.82 18.61,-37.05 18.61,-57.78 0,-1.24 -0.04,-2.52 -0.07,-3.76 -0.89,-114.6 0,-229.26 -0.79,-343.91 0,-16.82 4.92,-27.2 19.28,-35.86 27.1,-16.53 53.27,-34.43 81.65,-53.17 5.46,8.26 9.84,14.76 14.12,21.64 48.5,81.6 97.29,163.05 144.85,245.19 5.12,9.35 7.81,19.86 7.81,30.52 0,1.99 -0.09,4 -0.28,5.98 -9.54,88.54 -20.46,177.07 -30.94,265.85l-299.74 -0z"/>
    <path class="fil0" d="M1036.45 1850.29c13.67,-8.61 26.66,-18.74 41.22,-25.43 15.49,-7.08 19.67,-14.76 14.46,-31.92 -19.67,-65.02 -38.09,-130.36 -55.24,-196.01 -1.19,-4.68 -1.8,-9.51 -1.8,-14.35 0,-7.65 1.52,-15.24 4.46,-22.3 26.56,-56.2 54.33,-111.81 83.32,-166.84 6.11,-10.81 15.91,-19.05 27.59,-23.22 36.59,-11.21 74.12,-19.43 115.05,-29.76 4.48,19.67 9.1,38.32 12.84,57.01 28.69,143.62 57.25,287.26 85.68,430.92 0.99,7.24 1.58,14.59 1.67,21.89l-329.25 -0z"/>
   </g>
   <path class="fil0" d="M-0 2291.16l42.84 -41.39c23.1,26.96 51.5,41.39 86.15,41.39 38.99,0 59.2,-18.77 59.2,-47.17 0,-22.62 -10.59,-36.58 -45.73,-42.84l-31.77 -4.81c-67.86,-10.59 -100.59,-42.84 -100.59,-97.7 0,-60.17 46.69,-99.15 121.77,-99.15 50.54,0 88.08,17.33 115.03,49.57l-43.32 40.91c-16.36,-20.7 -39.47,-34.66 -75.09,-34.66 -36.1,0 -54.87,14.44 -54.87,39.47 0,25.51 14.44,36.1 46.69,41.88l31.29 5.77c67.86,12.03 99.63,42.36 99.63,97.7 0,63.53 -45.73,106.85 -126.1,106.85 -57.27,-0 -96.74,-22.62 -125.14,-55.83z"/>
   <polygon class="fil0" points="425,2061.57 425,2341.21 361.46,2341.21 361.46,2061.57 266.16,2061.57 266.16,2005.26 520.29,2005.26 520.29,2061.57 "/>
   <path class="fil0" d="M736.88 2341.21l-26.95 -85.67 -119.37 -0 -26.47 85.67 -64.49 0 112.63 -335.95 78.93 0 111.66 335.95 -65.94 0zm-85.67 -278.19l-2.41 0 -42.84 138.13 88.56 -0 -43.32 -138.13z"/>
   <polygon class="fil0" points="948.66,2189.12 903.89,2242.06 903.89,2341.21 840.36,2341.21 840.36,2005.26 903.89,2005.26 903.89,2170.83 906.3,2170.83 953.95,2107.77 1037.22,2005.26 1110.37,2005.26 993.42,2145.32 1120,2341.21 1044.44,2341.21 "/>
   <polygon class="fil0" points="1154.65,2341.21 1154.65,2005.26 1376.05,2005.26 1376.05,2061.57 1218.18,2061.57 1218.18,2142.91 1357.76,2142.91 1357.76,2199.22 1218.18,2199.22 1218.18,2284.9 1376.05,2284.9 1376.05,2341.21 "/>
   <path class="fil0" d="M1532.95 2005.26l122.25 0c87.6,0 144.87,56.31 144.87,167.98 0,111.66 -57.28,167.98 -144.87,167.98l-122.25 0 0 -335.95zm122.25 279.64c47.17,0 77.49,-27.92 77.49,-85.19l0 -52.94c0,-57.28 -30.32,-85.19 -77.49,-85.19l-58.72 0 0 223.33 58.72 0z"/>
   <path class="fil0" d="M2046.02 2341.21l-26.95 -85.67 -119.36 -0 -26.48 85.67 -64.49 0 112.63 -335.95 78.93 0 111.66 335.95 -65.94 0zm-85.67 -278.19l-2.41 0 -42.84 138.13 88.56 -0 -43.32 -138.13z"/>
   <path class="fil0" d="M2122.56 2173.23c0,-113.59 58.24,-173.75 146.31,-173.75 88.56,0 146.32,60.16 146.32,173.75 0,113.59 -57.75,173.75 -146.32,173.75 -88.08,-0 -146.31,-60.16 -146.31,-173.75zm225.25 25.99l0 -51.98c0,-57.28 -30.8,-91.45 -78.94,-91.45 -48.13,0 -78.93,34.17 -78.93,91.45l0 51.98c0,57.28 30.8,91.45 78.93,91.45 48.13,0 78.94,-34.18 78.94,-91.45z"/>
  </g>
 </g>
</svg>
