<?xml version="1.0" encoding="UTF-8"?>
<!DOCTYPE svg PUBLIC "-//W3C//DTD SVG 1.1//EN" "http://www.w3.org/Graphics/SVG/1.1/DTD/svg11.dtd">
<!-- Creator: CorelDRAW 2020 (64-Bit) -->
<svg xmlns="http://www.w3.org/2000/svg" xml:space="preserve" width="297mm" height="242.605mm" version="1.1" style="shape-rendering:geometricPrecision; text-rendering:geometricPrecision; image-rendering:optimizeQuality; fill-rule:evenodd; clip-rule:evenodd"
viewBox="0 0 2731.84 2231.51"
 xmlns:xlink="http://www.w3.org/1999/xlink"
 xmlns:xodm="http://www.corel.com/coreldraw/odm/2003">
 <defs>
  <style type="text/css">
   <![CDATA[
    .fil0 {fill:#7C3AED;fill-rule:nonzero}
   ]]>
  </style>
 </defs>
 <g id="Layer_x0020_1">
  <metadata id="CorelCorpID_0Corel-Layer"/>
  <g id="_2752168581648">
   <g id="noun_Elephant_1201412_Image" data-name="noun Elephant 1201412 Image">
    <path class="fil0" d="M-0 1311.84l0 -5.93c2.86,-8.26 5.14,-16.83 6.75,-25.45 25.27,-220.87 50.56,-441.7 75.87,-662.49 1.24,-13.59 6.04,-26.62 13.88,-37.78 86.67,-110.32 174.01,-220.06 262.03,-329.24 8.11,-9.36 19.27,-15.56 31.5,-17.5 96.99,-11.59 194.12,-22.16 291.39,-31.73 36.23,-3.11 71.5,-13.91 103.26,-31.6 98.93,-55.57 199.34,-108.6 298.75,-163.4 6.74,-4.39 14.6,-6.73 22.64,-6.73 7.34,0 14.56,1.96 20.9,5.65 145.13,71.65 290.62,142.35 436.05,213.52 9.37,4.63 18.39,9.96 35.59,19.16l-118.62 115.18c8.42,2.25 13.76,4.21 19.28,5.1 135.47,21.59 271.23,41.52 406.28,65.24 146.5,25.56 296.55,41.16 427.81,119.75 96.44,57.77 189.79,120.76 285.58,179.47 45.25,27.7 62.34,68.21 59.31,117.38 -4.92,84.64 -11.21,169.33 -20.52,253.67 -8.48,76.21 -27.76,149.52 -77.1,211.62 -4.45,5.63 -4.45,16.78 -3.03,24.79 46.34,261.64 92.84,523.2 139.5,784.68 6.76,38.43 9.96,77.52 14.77,116.31l-355.68 0c17.79,-20.46 33.99,-42.53 53.38,-60.91 16.31,-15.24 18.86,-27.05 8.72,-47.92 -100.63,-206.84 -200.33,-414.07 -299.1,-621.69 -11.86,-24.44 -24.55,-29.24 -50,-25.5 -112.22,16.49 -224.79,30.6 -337.24,45.55 -165.24,21.99 -330.5,43.97 -495.78,65.95 -18.62,2.43 -31.67,8.48 -41.16,27.28 -104.07,205.65 -208.83,411.28 -314.29,616.89l-361.44 0c2.87,-10.18 6.67,-20.17 11.33,-29.67 31.02,-51.66 63.05,-102.73 94.13,-154.21 7.27,-11.7 13.09,-24.33 17.21,-37.48 77.77,-265.35 155.05,-530.84 231.84,-796.47 0.53,-2.72 0.8,-5.49 0.8,-8.27 0,-9.95 -3.42,-19.61 -9.69,-27.32 -43.18,-44.78 -87.78,-88.25 -133.27,-130.48 -7.7,-6.2 -17.29,-9.58 -27.18,-9.58 -2.08,0 -4.16,0.15 -6.21,0.44 -108.24,22.36 -216.01,46.8 -324.25,69.16 -18.56,3.8 -23.72,12.81 -25.98,29.24 -11.39,91.22 -23.72,182.26 -34.81,273.48 -1.07,8.9 0,21.23 5.46,27.28 34.52,39.09 70.52,77.1 108.12,117.32l128.23 -123.07c14.18,95.96 27.34,185.29 41.16,278.76 -69.69,13.29 -137.13,26.27 -204.74,38.73 -0.25,0 -0.53,0.01 -0.79,0.01 -5.65,0 -11.26,-1.06 -16.53,-3.09 -40.27,-9.79 -81.02,-18.15 -120.52,-30.31 -15.37,-4.94 -28.75,-14.76 -38.08,-27.94 -44.3,-68.98 -86.12,-139.5 -129.47,-209.13 -34.82,-55.81 -70.41,-111.26 -105.99,-166.72z"/>
    <path class="fil0" d="M1854.7 2231.15c18.09,-30.19 34.58,-61.51 54.86,-90.09 14.58,-20.28 22.45,-44.68 22.45,-69.67 0,-1.5 -0.04,-3.04 -0.09,-4.53 -1.07,-138.19 0,-276.45 -0.95,-414.7 0,-20.28 5.93,-32.8 23.25,-43.24 32.68,-19.93 64.23,-41.52 98.46,-64.11 6.58,9.96 11.86,17.79 17.02,26.1 58.48,98.4 117.32,196.61 174.67,295.66 6.17,11.27 9.41,23.94 9.41,36.8 0,2.4 -0.11,4.83 -0.34,7.21 -11.51,106.76 -24.67,213.52 -37.31,320.57l-361.44 -0z"/>
    <path class="fil0" d="M1155.49 2231.15c16.49,-10.38 32.15,-22.6 49.7,-30.66 18.68,-8.54 23.72,-17.79 17.44,-38.49 -23.72,-78.41 -45.93,-157.19 -66.61,-236.35 -1.43,-5.65 -2.17,-11.47 -2.17,-17.3 0,-9.23 1.84,-18.38 5.38,-26.89 32.03,-67.77 65.52,-134.83 100.47,-201.18 7.36,-13.03 19.18,-22.97 33.27,-27.99 44.13,-13.52 89.38,-23.43 138.73,-35.88 5.4,23.72 10.97,46.2 15.48,68.74 34.6,173.18 69.04,346.39 103.32,519.62 1.2,8.74 1.91,17.59 2.01,26.4l-397.02 -0.01z"/>
   </g>
  </g>
 </g>
</svg>
